{
	"patcher" : 	{
		"fileversion" : 1,
		"rect" : [ 499.0, 217.0, 277.0, 263.0 ],
		"bglocked" : 0,
		"defrect" : [ 499.0, 217.0, 277.0, 263.0 ],
		"openrect" : [ 0.0, 0.0, 0.0, 0.0 ],
		"openinpresentation" : 0,
		"default_fontsize" : 12.0,
		"default_fontface" : 0,
		"default_fontname" : "Arial",
		"gridonopen" : 0,
		"gridsize" : [ 15.0, 15.0 ],
		"gridsnaponopen" : 0,
		"toolbarvisible" : 1,
		"boxanimatetime" : 200,
		"imprint" : 0,
		"metadata" : [  ],
		"boxes" : [ 			{
				"box" : 				{
					"maxclass" : "newobj",
					"text" : "tosymbol",
					"outlettype" : [ "" ],
					"fontsize" : 12.0,
					"patching_rect" : [ 25.0, 165.0, 59.0, 20.0 ],
					"numinlets" : 1,
					"fontname" : "Arial",
					"numoutlets" : 1,
					"id" : "obj-4"
				}

			}
, 			{
				"box" : 				{
					"maxclass" : "newobj",
					"text" : "route set",
					"outlettype" : [ "", "" ],
					"fontsize" : 12.0,
					"patching_rect" : [ 25.0, 134.0, 57.0, 20.0 ],
					"numinlets" : 1,
					"fontname" : "Arial",
					"numoutlets" : 2,
					"id" : "obj-15"
				}

			}
, 			{
				"box" : 				{
					"maxclass" : "message",
					"text" : "line 1",
					"outlettype" : [ "" ],
					"fontsize" : 12.0,
					"patching_rect" : [ 25.0, 79.0, 39.0, 18.0 ],
					"numinlets" : 2,
					"fontname" : "Arial",
					"numoutlets" : 1,
					"id" : "obj-12"
				}

			}
, 			{
				"box" : 				{
					"maxclass" : "newobj",
					"text" : "text audioDir.txt",
					"outlettype" : [ "", "bang", "int" ],
					"fontsize" : 12.0,
					"patching_rect" : [ 25.0, 103.0, 94.0, 20.0 ],
					"numinlets" : 1,
					"fontname" : "Arial",
					"numoutlets" : 3,
					"id" : "obj-11"
				}

			}
, 			{
				"box" : 				{
					"maxclass" : "newobj",
					"text" : "b",
					"outlettype" : [ "bang", "bang" ],
					"fontsize" : 12.0,
					"patching_rect" : [ 25.0, 55.0, 32.5, 20.0 ],
					"numinlets" : 1,
					"fontname" : "Arial",
					"numoutlets" : 2,
					"id" : "obj-5"
				}

			}
, 			{
				"box" : 				{
					"maxclass" : "newobj",
					"text" : "sprintf \\\"%s%s\\\"",
					"outlettype" : [ "" ],
					"fontsize" : 12.0,
					"patching_rect" : [ 25.0, 191.0, 96.0, 20.0 ],
					"numinlets" : 2,
					"fontname" : "Arial",
					"numoutlets" : 1,
					"id" : "obj-3"
				}

			}
, 			{
				"box" : 				{
					"maxclass" : "message",
					"text" : "#1\n",
					"outlettype" : [ "" ],
					"fontsize" : 12.0,
					"patching_rect" : [ 102.0, 135.0, 32.5, 18.0 ],
					"numinlets" : 2,
					"fontname" : "Arial",
					"numoutlets" : 1,
					"id" : "obj-1"
				}

			}
, 			{
				"box" : 				{
					"maxclass" : "newobj",
					"text" : "loadbang",
					"outlettype" : [ "bang" ],
					"fontsize" : 12.0,
					"patching_rect" : [ 25.0, 29.0, 60.0, 20.0 ],
					"numinlets" : 1,
					"fontname" : "Arial",
					"numoutlets" : 1,
					"id" : "obj-2"
				}

			}
, 			{
				"box" : 				{
					"maxclass" : "message",
					"text" : "read $1 0 -1 1",
					"outlettype" : [ "" ],
					"fontsize" : 12.0,
					"patching_rect" : [ 25.0, 214.0, 85.0, 18.0 ],
					"numinlets" : 2,
					"fontname" : "Arial",
					"numoutlets" : 1,
					"id" : "obj-14"
				}

			}
, 			{
				"box" : 				{
					"maxclass" : "newobj",
					"text" : "buffer~ #1 1",
					"outlettype" : [ "float", "bang" ],
					"fontsize" : 12.0,
					"patching_rect" : [ 25.0, 234.0, 152.0, 20.0 ],
					"numinlets" : 1,
					"fontname" : "Arial",
					"numoutlets" : 2,
					"id" : "obj-13"
				}

			}
 ],
		"lines" : [ 			{
				"patchline" : 				{
					"source" : [ "obj-11", 0 ],
					"destination" : [ "obj-15", 0 ],
					"hidden" : 0,
					"midpoints" : [  ]
				}

			}
, 			{
				"patchline" : 				{
					"source" : [ "obj-12", 0 ],
					"destination" : [ "obj-11", 0 ],
					"hidden" : 0,
					"midpoints" : [  ]
				}

			}
, 			{
				"patchline" : 				{
					"source" : [ "obj-5", 0 ],
					"destination" : [ "obj-12", 0 ],
					"hidden" : 0,
					"midpoints" : [  ]
				}

			}
, 			{
				"patchline" : 				{
					"source" : [ "obj-5", 1 ],
					"destination" : [ "obj-1", 0 ],
					"hidden" : 0,
					"midpoints" : [ 48.0, 77.0, 58.0, 77.0, 58.0, 74.0, 130.0, 74.0, 130.0, 131.0, 111.5, 131.0 ]
				}

			}
, 			{
				"patchline" : 				{
					"source" : [ "obj-2", 0 ],
					"destination" : [ "obj-5", 0 ],
					"hidden" : 0,
					"midpoints" : [  ]
				}

			}
, 			{
				"patchline" : 				{
					"source" : [ "obj-1", 0 ],
					"destination" : [ "obj-3", 1 ],
					"hidden" : 0,
					"midpoints" : [  ]
				}

			}
, 			{
				"patchline" : 				{
					"source" : [ "obj-3", 0 ],
					"destination" : [ "obj-14", 0 ],
					"hidden" : 0,
					"midpoints" : [  ]
				}

			}
, 			{
				"patchline" : 				{
					"source" : [ "obj-14", 0 ],
					"destination" : [ "obj-13", 0 ],
					"hidden" : 0,
					"midpoints" : [  ]
				}

			}
, 			{
				"patchline" : 				{
					"source" : [ "obj-15", 0 ],
					"destination" : [ "obj-4", 0 ],
					"hidden" : 0,
					"midpoints" : [  ]
				}

			}
, 			{
				"patchline" : 				{
					"source" : [ "obj-4", 0 ],
					"destination" : [ "obj-3", 0 ],
					"hidden" : 0,
					"midpoints" : [  ]
				}

			}
 ]
	}

}
